<svg width="22" height="24" viewBox="0 0 22 24" fill="none" xmlns="http://www.w3.org/2000/svg">
<mask id="path-1-outside-1_314_168" maskUnits="userSpaceOnUse" x="6.24561" y="6.71889" width="10" height="17" fill="black">
<rect fill="white" x="6.24561" y="6.71889" width="10" height="17"/>
<path d="M12.2934 8.33187C12.8915 8.32629 13.4675 8.55752 13.8959 8.97518C14.324 9.39268 14.57 9.96275 14.5795 10.5608V22.1058H7.87662V10.5608C7.88619 9.96279 8.13193 9.39268 8.56026 8.97518C8.98859 8.55755 9.56461 8.32628 10.1628 8.33187H12.2843M12.2843 7.71919H10.1719C9.40707 7.70818 8.66918 8.00129 8.12046 8.53407C7.57175 9.06703 7.25712 9.79594 7.24561 10.5608V22.7186H15.2198V10.5608C15.2083 9.79598 14.8936 9.06703 14.3449 8.53407C13.7962 8.00128 13.0583 7.7082 12.2935 7.71919H12.2843Z"/>
</mask>
<path d="M12.2934 8.33187C12.8915 8.32629 13.4675 8.55752 13.8959 8.97518C14.324 9.39268 14.57 9.96275 14.5795 10.5608V22.1058H7.87662V10.5608C7.88619 9.96279 8.13193 9.39268 8.56026 8.97518C8.98859 8.55755 9.56461 8.32628 10.1628 8.33187H12.2843M12.2843 7.71919H10.1719C9.40707 7.70818 8.66918 8.00129 8.12046 8.53407C7.57175 9.06703 7.25712 9.79594 7.24561 10.5608V22.7186H15.2198V10.5608C15.2083 9.79598 14.8936 9.06703 14.3449 8.53407C13.7962 8.00128 13.0583 7.7082 12.2935 7.71919H12.2843Z" fill="#4FC1E3"/>
<path d="M13.8959 8.97518L14.1053 8.76039L14.1053 8.76039L13.8959 8.97518ZM14.5795 10.5608L14.8796 10.5608L14.8795 10.556L14.5795 10.5608ZM14.5795 22.1058V22.4058H14.8795V22.1058H14.5795ZM7.87662 22.1058H7.57662V22.4058H7.87662V22.1058ZM7.87662 10.5608L7.57662 10.556V10.5608H7.87662ZM8.56026 8.97518L8.76966 9.19001L8.76969 9.18997L8.56026 8.97518ZM10.1628 8.33187L10.16 8.63187H10.1628V8.33187ZM10.1719 7.71919L10.1676 8.01919H10.1719V7.71919ZM8.12046 8.53407L7.91148 8.31884L7.91144 8.31887L8.12046 8.53407ZM7.24561 10.5608L6.94561 10.5563V10.5608H7.24561ZM7.24561 22.7186H6.94561V23.0186H7.24561V22.7186ZM15.2198 22.7186V23.0186H15.5198V22.7186H15.2198ZM15.2198 10.5608L15.5198 10.5608L15.5197 10.5563L15.2198 10.5608ZM14.3449 8.53407L14.5539 8.31887L14.5539 8.31884L14.3449 8.53407ZM12.2935 7.71919V8.01922L12.2978 8.01916L12.2935 7.71919ZM12.2962 8.63186C12.8151 8.62702 13.3148 8.82761 13.6864 9.18997L14.1053 8.76039C13.6203 8.28742 12.9679 8.02556 12.2906 8.03189L12.2962 8.63186ZM13.6864 9.18997C14.0579 9.55221 14.2713 10.0468 14.2796 10.5656L14.8795 10.556C14.8687 9.87869 14.5901 9.23316 14.1053 8.76039L13.6864 9.18997ZM14.2795 10.5608V22.1058H14.8795V10.5608H14.2795ZM14.5795 21.8058H7.87662V22.4058H14.5795V21.8058ZM8.17662 22.1058V10.5608H7.57662V22.1058H8.17662ZM8.17658 10.5656C8.18489 10.0468 8.39809 9.55219 8.76966 9.19001L8.35086 8.76035C7.86578 9.23317 7.5875 9.87879 7.57666 10.556L8.17658 10.5656ZM8.76969 9.18997C9.14131 8.82763 9.64105 8.62701 10.16 8.63186L10.1656 8.03189C9.48817 8.02555 8.83586 8.28746 8.35083 8.76038L8.76969 9.18997ZM10.1628 8.63187H12.2843V8.03187H10.1628V8.63187ZM12.2843 7.41919H10.1719V8.01919H12.2843V7.41919ZM10.1762 7.41922C9.33188 7.40707 8.51726 7.73065 7.91148 8.31884L8.32945 8.74931C8.8211 8.27193 9.48227 8.0093 10.1676 8.01916L10.1762 7.41922ZM7.91144 8.31887C7.30569 8.90723 6.95835 9.71193 6.94564 10.5563L7.54557 10.5653C7.55589 9.87996 7.83781 9.22683 8.32948 8.74927L7.91144 8.31887ZM6.94561 10.5608V22.7186H7.54561V10.5608H6.94561ZM7.24561 23.0186H15.2198V22.4186H7.24561V23.0186ZM15.5198 22.7186V10.5608H14.9198V22.7186H15.5198ZM15.5197 10.5563C15.507 9.71197 15.1597 8.90723 14.5539 8.31887L14.1359 8.74928C14.6276 9.22683 14.9095 9.88 14.9198 10.5653L15.5197 10.5563ZM14.5539 8.31884C13.9481 7.73063 13.1335 7.40709 12.2892 7.41922L12.2978 8.01916C12.9831 8.00932 13.6443 8.27193 14.1359 8.74931L14.5539 8.31884ZM12.2935 7.41919H12.2843V8.01919H12.2935V7.41919Z" fill="#4FC1E3" mask="url(#path-1-outside-1_314_168)"/>
<mask id="path-3-outside-2_314_168" maskUnits="userSpaceOnUse" x="7.23328" y="0" width="8" height="8" fill="black">
<rect fill="white" x="7.23328" width="8" height="8"/>
<path d="M11.2327 1.61298C11.8518 1.60501 12.4488 1.84293 12.8928 2.27445C13.3368 2.70596 13.5916 3.29599 13.6012 3.91508C13.6012 4.76137 13.1497 5.54327 12.417 5.96633C11.6842 6.38938 10.7813 6.38938 10.0485 5.96633C9.31576 5.54327 8.86429 4.76137 8.86429 3.91508C8.87386 3.29603 9.12869 2.706 9.57267 2.27445C10.0166 1.84294 10.6137 1.60502 11.2327 1.61298M11.2327 1.00029C10.4485 0.989289 9.69212 1.29021 9.12965 1.83669C8.56705 2.38337 8.24475 3.13094 8.23328 3.91504C8.2741 4.95891 8.85458 5.90631 9.76577 6.41678C10.6771 6.92724 11.7883 6.92724 12.6997 6.41678C13.6109 5.90631 14.1913 4.95891 14.2322 3.91504C14.2207 3.13094 13.8984 2.38333 13.3358 1.83669C12.7734 1.29018 12.017 0.98927 11.2327 1.00029H11.2327Z"/>
</mask>
<path d="M11.2327 1.61298C11.8518 1.60501 12.4488 1.84293 12.8928 2.27445C13.3368 2.70596 13.5916 3.29599 13.6012 3.91508C13.6012 4.76137 13.1497 5.54327 12.417 5.96633C11.6842 6.38938 10.7813 6.38938 10.0485 5.96633C9.31576 5.54327 8.86429 4.76137 8.86429 3.91508C8.87386 3.29603 9.12869 2.706 9.57267 2.27445C10.0166 1.84294 10.6137 1.60502 11.2327 1.61298M11.2327 1.00029C10.4485 0.989289 9.69212 1.29021 9.12965 1.83669C8.56705 2.38337 8.24475 3.13094 8.23328 3.91504C8.2741 4.95891 8.85458 5.90631 9.76577 6.41678C10.6771 6.92724 11.7883 6.92724 12.6997 6.41678C13.6109 5.90631 14.1913 4.95891 14.2322 3.91504C14.2207 3.13094 13.8984 2.38333 13.3358 1.83669C12.7734 1.29018 12.017 0.98927 11.2327 1.00029H11.2327Z" fill="#4FC1E3"/>
<path d="M12.8928 2.27445L12.6837 2.48958L12.6837 2.48958L12.8928 2.27445ZM13.6012 3.91508H13.9012L13.9011 3.91044L13.6012 3.91508ZM10.0485 5.96633L9.89851 6.22613L9.89852 6.22614L10.0485 5.96633ZM8.86429 3.91508L8.56429 3.91045V3.91508H8.86429ZM9.57267 2.27445L9.36358 2.05932L9.36357 2.05933L9.57267 2.27445ZM11.2327 1.00029V1.30029L11.2369 0.700322L11.2327 1.00029ZM9.12965 1.83669L8.9206 1.62153L8.92058 1.62154L9.12965 1.83669ZM8.23328 3.91504L7.93331 3.91065L7.93319 3.91871L7.93351 3.92677L8.23328 3.91504ZM9.76577 6.41678L9.61914 6.67851L9.61916 6.67852L9.76577 6.41678ZM12.6997 6.41678L12.8463 6.67852L12.8463 6.67851L12.6997 6.41678ZM14.2322 3.91504L14.5319 3.92677L14.5322 3.91871L14.5321 3.91065L14.2322 3.91504ZM13.3358 1.83669L13.1267 2.05185L13.1267 2.05186L13.3358 1.83669ZM11.2327 1.00029L11.2285 0.700322L11.2327 1.30029V1.00029ZM11.2366 1.91295C11.7762 1.906 12.2967 2.11341 12.6837 2.48958L13.1019 2.05932C12.601 1.57246 11.9274 1.30401 11.2289 1.313L11.2366 1.91295ZM12.6837 2.48958C13.0707 2.86574 13.2929 3.38009 13.3012 3.91973L13.9011 3.91044C13.8903 3.21189 13.6028 2.54618 13.1019 2.05932L12.6837 2.48958ZM13.3012 3.91508C13.3012 4.65419 12.9069 5.33705 12.267 5.70652L12.567 6.22613C13.3925 5.74948 13.9012 4.86854 13.9012 3.91508H13.3012ZM12.267 5.70652C11.627 6.07599 10.8385 6.07599 10.1985 5.70652L9.89852 6.22614C10.7241 6.70278 11.7414 6.70278 12.567 6.22613L12.267 5.70652ZM10.1985 5.70652C9.55859 5.33705 9.16429 4.65419 9.16429 3.91508H8.56429C8.56429 4.86854 9.07294 5.74948 9.89851 6.22613L10.1985 5.70652ZM9.16426 3.91972C9.1726 3.38013 9.39472 2.86579 9.78177 2.48957L9.36357 2.05933C8.86266 2.54621 8.57513 3.21193 8.56433 3.91045L9.16426 3.91972ZM9.78176 2.48958C10.1688 2.11342 10.6893 1.90601 11.2289 1.91295L11.2366 1.313C10.5381 1.30402 9.86448 1.57246 9.36358 2.05932L9.78176 2.48958ZM11.2369 0.700322C10.3731 0.688203 9.54008 1.01965 8.9206 1.62153L9.3387 2.05186C9.84416 1.56077 10.5238 1.29038 11.2285 1.30026L11.2369 0.700322ZM8.92058 1.62154C8.30093 2.22365 7.94594 3.04704 7.93331 3.91065L8.53324 3.91943C8.54355 3.21484 8.83317 2.54308 9.33871 2.05185L8.92058 1.62154ZM7.93351 3.92677C7.97841 5.07495 8.6169 6.11703 9.61914 6.67851L9.91239 6.15505C9.09226 5.6956 8.56979 4.84288 8.53305 3.90332L7.93351 3.92677ZM9.61916 6.67852C10.6216 7.23999 11.8438 7.23999 12.8463 6.67852L12.5531 6.15504C11.7328 6.61449 10.7326 6.61449 9.91237 6.15504L9.61916 6.67852ZM12.8463 6.67851C13.8485 6.11703 14.487 5.07495 14.5319 3.92677L13.9324 3.90332C13.8956 4.84288 13.3732 5.6956 12.553 6.15505L12.8463 6.67851ZM14.5321 3.91065C14.5195 3.04705 14.1645 2.22361 13.5448 1.62153L13.1267 2.05186C13.6323 2.54304 13.9219 3.21483 13.9322 3.91944L14.5321 3.91065ZM13.5448 1.62154C12.9254 1.01962 12.0923 0.688182 11.2285 0.700322L11.2369 1.30026C11.9416 1.29036 12.6213 1.56075 13.1267 2.05185L13.5448 1.62154ZM11.2327 1.30029H11.2327V0.700292H11.2327V1.30029Z" fill="#4FC1E3" mask="url(#path-3-outside-2_314_168)"/>
<mask id="path-5-outside-3_314_168" maskUnits="userSpaceOnUse" x="0" y="7.23335" width="6" height="14" fill="black">
<rect fill="white" y="7.23335" width="6" height="14"/>
<path d="M3.18555 8.84625C3.59445 8.84083 3.98881 8.99774 4.28204 9.28286C4.57515 9.56783 4.74323 9.95772 4.74927 10.3666V19.4218H1.63102V10.3666C1.63708 9.95772 1.805 9.56785 2.09825 9.28286C2.39151 8.99773 2.78589 8.84082 3.19474 8.84625M3.19474 8.23356C2.62079 8.22559 2.06747 8.44581 1.65588 8.84576C1.24429 9.24571 1.00845 9.79267 1 10.3666V20.0346H5.38041V10.3666C5.37196 9.79267 5.13611 9.24571 4.72454 8.84576C4.31295 8.44581 3.75958 8.2256 3.18567 8.23356H3.19474Z"/>
</mask>
<path d="M3.18555 8.84625C3.59445 8.84083 3.98881 8.99774 4.28204 9.28286C4.57515 9.56783 4.74323 9.95772 4.74927 10.3666V19.4218H1.63102V10.3666C1.63708 9.95772 1.805 9.56785 2.09825 9.28286C2.39151 8.99773 2.78589 8.84082 3.19474 8.84625M3.19474 8.23356C2.62079 8.22559 2.06747 8.44581 1.65588 8.84576C1.24429 9.24571 1.00845 9.79267 1 10.3666V20.0346H5.38041V10.3666C5.37196 9.79267 5.13611 9.24571 4.72454 8.84576C4.31295 8.44581 3.75958 8.2256 3.18567 8.23356H3.19474Z" fill="#4FC1E3"/>
<path d="M4.28204 9.28286L4.07291 9.49795L4.07292 9.49796L4.28204 9.28286ZM4.74927 10.3666L5.04931 10.3666L5.04924 10.3622L4.74927 10.3666ZM4.74927 19.4218V19.7218H5.04927V19.4218H4.74927ZM1.63102 19.4218H1.33102V19.7218H1.63102V19.4218ZM1.63102 10.3666L1.33102 10.3622V10.3666H1.63102ZM2.09825 9.28286L2.30733 9.498L2.30738 9.49795L2.09825 9.28286ZM3.19474 8.23356V8.53356L3.19891 7.93359L3.19474 8.23356ZM1.65588 8.84576L1.44681 8.6306L1.44681 8.63061L1.65588 8.84576ZM1 10.3666L0.7 10.3622V10.3666H1ZM1 20.0346H0.7V20.3346H1V20.0346ZM5.38041 20.0346V20.3346H5.68041V20.0346H5.38041ZM5.38041 10.3666L5.68045 10.3666L5.68038 10.3622L5.38041 10.3666ZM4.72454 8.84576L4.93361 8.63061L4.9336 8.63061L4.72454 8.84576ZM3.18567 8.23356L3.18151 7.93359L3.18567 8.53356V8.23356ZM3.18953 9.14622C3.51902 9.14185 3.83671 9.26829 4.07291 9.49795L4.49118 9.06777C4.1409 8.72719 3.66987 8.5398 3.18158 8.54627L3.18953 9.14622ZM4.07292 9.49796C4.309 9.72749 4.44444 10.0416 4.44931 10.371L5.04924 10.3622C5.04203 9.87384 4.84129 9.40817 4.49117 9.06777L4.07292 9.49796ZM4.44927 10.3666V19.4218H5.04927V10.3666H4.44927ZM4.74927 19.1218H1.63102V19.7218H4.74927V19.1218ZM1.93102 19.4218V10.3666H1.33102V19.4218H1.93102ZM1.93098 10.3711C1.93587 10.0415 2.07119 9.72749 2.30733 9.498L1.88917 9.06772C1.5388 9.40821 1.33829 9.8739 1.33105 10.3622L1.93098 10.3711ZM2.30738 9.49795C2.5436 9.26828 2.86131 9.14185 3.19075 9.14622L3.19872 8.54627C2.71046 8.53979 2.23942 8.72718 1.88912 9.06777L2.30738 9.49795ZM3.19891 7.93359C2.54541 7.92451 1.9154 8.17527 1.44681 8.6306L1.86495 9.06091C2.21953 8.71635 2.69617 8.52666 3.19057 8.53353L3.19891 7.93359ZM1.44681 8.63061C0.978161 9.086 0.709653 9.70878 0.700033 10.3622L1.29997 10.371C1.30725 9.87656 1.51042 9.40541 1.86495 9.06091L1.44681 8.63061ZM0.7 10.3666V20.0346H1.3V10.3666H0.7ZM1 20.3346H5.38041V19.7346H1V20.3346ZM5.68041 20.0346V10.3666H5.08041V20.0346H5.68041ZM5.68038 10.3622C5.67076 9.70877 5.40223 9.08601 4.93361 8.63061L4.51546 9.0609C4.86998 9.40542 5.07316 9.87657 5.08045 10.371L5.68038 10.3622ZM4.9336 8.63061C4.46501 8.17526 3.83495 7.92453 3.18151 7.93359L3.18984 8.53353C3.6842 8.52668 4.16089 8.71636 4.51547 9.06091L4.9336 8.63061ZM3.18567 8.53356H3.19474V7.93356H3.18567V8.53356Z" fill="#4FC1E3" mask="url(#path-5-outside-3_314_168)"/>
<mask id="path-7-outside-4_314_168" maskUnits="userSpaceOnUse" x="0.283569" y="2.68391" width="6" height="5" fill="black">
<rect fill="white" x="0.283569" y="2.68391" width="6" height="5"/>
<path d="M3.18555 4.29698C3.51167 4.30591 3.82086 4.44337 4.04604 4.67939C4.27121 4.91524 4.394 5.23068 4.38794 5.55662C4.38172 5.88273 4.24697 6.19322 4.01303 6.42045C3.77909 6.64769 3.46477 6.77335 3.13866 6.77001C2.81256 6.76666 2.50095 6.63462 2.27164 6.40259C2.04233 6.17072 1.91396 5.85751 1.91443 5.53141C1.91938 5.19908 2.05588 4.88239 2.29429 4.65083C2.5327 4.41928 2.85337 4.29203 3.18556 4.29697M3.18556 3.68428V3.68413C2.68832 3.67695 2.20864 3.86736 1.85192 4.2139C1.49519 4.56027 1.29075 5.03422 1.28357 5.53141C1.29011 6.02897 1.49439 6.50351 1.8511 6.85051C2.20784 7.19736 2.688 7.38825 3.18556 7.3809C3.68296 7.3876 4.1628 7.19656 4.51936 6.8497C4.87609 6.50301 5.08053 6.02877 5.08771 5.53137C5.0799 5.0343 4.87514 4.5607 4.51858 4.21447C4.16201 3.8681 3.68263 3.67739 3.1856 3.68408L3.18556 3.68428Z"/>
</mask>
<path d="M3.18555 4.29698C3.51167 4.30591 3.82086 4.44337 4.04604 4.67939C4.27121 4.91524 4.394 5.23068 4.38794 5.55662C4.38172 5.88273 4.24697 6.19322 4.01303 6.42045C3.77909 6.64769 3.46477 6.77335 3.13866 6.77001C2.81256 6.76666 2.50095 6.63462 2.27164 6.40259C2.04233 6.17072 1.91396 5.85751 1.91443 5.53141C1.91938 5.19908 2.05588 4.88239 2.29429 4.65083C2.5327 4.41928 2.85337 4.29203 3.18556 4.29697M3.18556 3.68428V3.68413C2.68832 3.67695 2.20864 3.86736 1.85192 4.2139C1.49519 4.56027 1.29075 5.03422 1.28357 5.53141C1.29011 6.02897 1.49439 6.50351 1.8511 6.85051C2.20784 7.19736 2.688 7.38825 3.18556 7.3809C3.68296 7.3876 4.1628 7.19656 4.51936 6.8497C4.87609 6.50301 5.08053 6.02877 5.08771 5.53137C5.0799 5.0343 4.87514 4.5607 4.51858 4.21447C4.16201 3.8681 3.68263 3.67739 3.1856 3.68408L3.18556 3.68428Z" fill="#4FC1E3"/>
<path d="M4.04604 4.67939L3.82899 4.88648L3.82905 4.88655L4.04604 4.67939ZM4.38794 5.55662L4.68789 5.56234L4.68789 5.56219L4.38794 5.55662ZM4.01303 6.42045L3.80401 6.20525L3.804 6.20526L4.01303 6.42045ZM2.27164 6.40259L2.48502 6.19171L2.48495 6.19164L2.27164 6.40259ZM1.91443 5.53141L1.61444 5.52694L1.61443 5.53097L1.91443 5.53141ZM3.18556 3.68428H2.88556L3.47943 3.74461L3.18556 3.68428ZM3.18556 3.68413H3.48556V3.38842L3.18989 3.38416L3.18556 3.68413ZM1.85192 4.2139L2.0609 4.42913L2.06096 4.42908L1.85192 4.2139ZM1.28357 5.53141L0.983486 5.52707L0.983595 5.53535L1.28357 5.53141ZM1.8511 6.85051L1.64192 7.06555L1.64197 7.06561L1.8511 6.85051ZM3.18556 7.3809L3.1896 7.08081L3.18113 7.08093L3.18556 7.3809ZM4.51936 6.8497L4.31028 6.63456L4.31017 6.63466L4.51936 6.8497ZM5.08771 5.53137L5.38782 5.5357L5.38767 5.52665L5.08771 5.53137ZM4.51858 4.21447L4.30955 4.42966L4.30959 4.4297L4.51858 4.21447ZM3.1856 3.68408L3.18156 3.38411L2.94026 3.38736L2.89173 3.62376L3.1856 3.68408ZM3.17734 4.59687C3.42428 4.60363 3.65842 4.70771 3.82899 4.88648L4.2631 4.4723C3.9833 4.17904 3.59906 4.00819 3.19377 3.9971L3.17734 4.59687ZM3.82905 4.88655C3.99952 5.06511 4.09259 5.30405 4.08799 5.55104L4.68789 5.56219C4.69542 5.1573 4.5429 4.76538 4.26303 4.47223L3.82905 4.88655ZM4.088 5.5509C4.08329 5.79795 3.9812 6.03315 3.80401 6.20525L4.22205 6.63565C4.51275 6.3533 4.68016 5.96751 4.68789 5.56234L4.088 5.5509ZM3.804 6.20526C3.62681 6.37738 3.38872 6.47256 3.14174 6.47002L3.13558 7.06999C3.54081 7.07415 3.93137 6.91801 4.22206 6.63564L3.804 6.20526ZM3.14174 6.47002C2.89477 6.46749 2.65873 6.36748 2.48502 6.19171L2.05827 6.61347C2.34317 6.90175 2.73036 7.06583 3.13558 7.06999L3.14174 6.47002ZM2.48495 6.19164C2.31132 6.01607 2.21407 5.77886 2.21443 5.53185L1.61443 5.53097C1.61384 5.93616 1.77334 6.32537 2.05834 6.61355L2.48495 6.19164ZM2.2144 5.53587C2.21816 5.28296 2.32203 5.0421 2.50331 4.86604L2.08527 4.43563C1.78973 4.72267 1.62059 5.11519 1.61447 5.52694L2.2144 5.53587ZM2.50331 4.86604C2.68459 4.68996 2.92847 4.59318 3.18109 4.59694L3.19002 3.997C2.77828 3.99088 2.3808 4.1486 2.08527 4.43563L2.50331 4.86604ZM3.48556 3.68428V3.68413H2.88556V3.68428H3.48556ZM3.18989 3.38416C2.61318 3.37583 2.05673 3.59668 1.64288 3.99872L2.06096 4.42908C2.36056 4.13803 2.76346 3.97807 3.18123 3.98409L3.18989 3.38416ZM1.64294 3.99866C1.22909 4.40049 0.991936 4.95031 0.983601 5.52708L1.58354 5.53575C1.58957 5.11812 1.76129 4.72004 2.0609 4.42913L1.64294 3.99866ZM0.983595 5.53535C0.991181 6.11262 1.22818 6.66308 1.64192 7.06555L2.06029 6.63548C1.7606 6.34394 1.58903 5.94532 1.58354 5.52747L0.983595 5.53535ZM1.64197 7.06561C2.05579 7.46795 2.61278 7.68939 3.18999 7.68087L3.18113 7.08093C2.76322 7.0871 2.35988 6.92676 2.06023 6.63542L1.64197 7.06561ZM3.18152 7.68087C3.7584 7.68864 4.31495 7.46708 4.72855 7.06474L4.31017 6.63466C4.01065 6.92603 3.60751 7.08655 3.1896 7.08093L3.18152 7.68087ZM4.72844 7.06484C5.14223 6.6627 5.37935 6.11263 5.38768 5.5357L4.78774 5.52704C4.78171 5.94491 4.60995 6.34332 4.31028 6.63456L4.72844 7.06484ZM5.38767 5.52665C5.37861 4.95011 5.14112 4.40081 4.72758 3.99924L4.30959 4.4297C4.60916 4.72059 4.78118 5.11849 4.78775 5.53609L5.38767 5.52665ZM4.72761 3.99928C4.31404 3.59754 3.75803 3.37635 3.18156 3.38411L3.18964 3.98406C3.60724 3.97843 4.00998 4.13866 4.30955 4.42966L4.72761 3.99928ZM2.89173 3.62376L2.89169 3.62396L3.47943 3.74461L3.47947 3.74441L2.89173 3.62376Z" fill="#4FC1E3" mask="url(#path-7-outside-4_314_168)"/>
<mask id="path-9-outside-5_314_168" maskUnits="userSpaceOnUse" x="16.0852" y="7.23335" width="6" height="14" fill="black">
<rect fill="white" x="16.0852" y="7.23335" width="6" height="14"/>
<path d="M19.28 8.84625C19.6873 8.84322 20.0792 9.00125 20.3704 9.28604C20.6616 9.57086 20.8284 9.95931 20.8345 10.3666V19.4218H17.7162V10.3666C17.7223 9.95772 17.8904 9.56785 18.1835 9.28286C18.4767 8.99773 18.8711 8.84082 19.2799 8.84625M19.2799 8.23356C18.706 8.22559 18.1527 8.44581 17.7411 8.84576C17.3295 9.24571 17.0937 9.79267 17.0852 10.3666V20.0346H21.4746V10.3666C21.4661 9.79267 21.2303 9.24571 20.8187 8.84576C20.4073 8.44581 19.8538 8.2256 19.28 8.23356H19.2799Z"/>
</mask>
<path d="M19.28 8.84625C19.6873 8.84322 20.0792 9.00125 20.3704 9.28604C20.6616 9.57086 20.8284 9.95931 20.8345 10.3666V19.4218H17.7162V10.3666C17.7223 9.95772 17.8904 9.56785 18.1835 9.28286C18.4767 8.99773 18.8711 8.84082 19.2799 8.84625M19.2799 8.23356C18.706 8.22559 18.1527 8.44581 17.7411 8.84576C17.3295 9.24571 17.0937 9.79267 17.0852 10.3666V20.0346H21.4746V10.3666C21.4661 9.79267 21.2303 9.24571 20.8187 8.84576C20.4073 8.44581 19.8538 8.2256 19.28 8.23356H19.2799Z" fill="#4FC1E3"/>
<path d="M20.3704 9.28604L20.5802 9.07158L20.5802 9.07157L20.3704 9.28604ZM20.8345 10.3666L21.1345 10.3666L21.1344 10.3622L20.8345 10.3666ZM20.8345 19.4218V19.7218H21.1345V19.4218H20.8345ZM17.7162 19.4218H17.4162V19.7218H17.7162V19.4218ZM17.7162 10.3666L17.4162 10.3622V10.3666H17.7162ZM18.1835 9.28286L17.9743 9.06777L17.9743 9.06778L18.1835 9.28286ZM19.2799 8.23356L19.2758 8.53356H19.2799V8.23356ZM17.7411 8.84576L17.532 8.6306L17.532 8.63061L17.7411 8.84576ZM17.0852 10.3666L16.7852 10.3622V10.3666H17.0852ZM17.0852 20.0346H16.7852V20.3346H17.0852V20.0346ZM21.4746 20.0346V20.3346H21.7746V20.0346H21.4746ZM21.4746 10.3666H21.7746L21.7746 10.3622L21.4746 10.3666ZM20.8187 8.84576L20.6096 9.06087L20.6096 9.0609L20.8187 8.84576ZM19.28 8.23356V8.53359L19.2842 8.53353L19.28 8.23356ZM19.2822 9.14624C19.6104 9.1438 19.9261 9.27112 20.1607 9.50052L20.5802 9.07157C20.2324 8.73138 19.7642 8.54264 19.2778 8.54626L19.2822 9.14624ZM20.1607 9.50051C20.3952 9.72996 20.5296 10.0429 20.5345 10.3711L21.1344 10.3622C21.1272 9.87571 20.928 9.41176 20.5802 9.07158L20.1607 9.50051ZM20.5345 10.3666V19.4218H21.1345V10.3666H20.5345ZM20.8345 19.1218H17.7162V19.7218H20.8345V19.1218ZM18.0162 19.4218V10.3666H17.4162V19.4218H18.0162ZM18.0162 10.3711C18.0211 10.0416 18.1565 9.72751 18.3926 9.49794L17.9743 9.06778C17.6242 9.4082 17.4235 9.87383 17.4163 10.3622L18.0162 10.3711ZM18.3926 9.49795C18.6288 9.26828 18.9465 9.14185 19.276 9.14622L19.2839 8.54627C18.7957 8.53979 18.3246 8.72718 17.9743 9.06777L18.3926 9.49795ZM19.2841 7.93359C18.6306 7.92451 18.0006 8.17527 17.532 8.6306L17.9502 9.06091C18.3047 8.71635 18.7814 8.52666 19.2758 8.53353L19.2841 7.93359ZM17.532 8.63061C17.0634 9.086 16.7949 9.70878 16.7852 10.3622L17.3852 10.371C17.3925 9.87656 17.5956 9.40541 17.9502 9.06091L17.532 8.63061ZM16.7852 10.3666V20.0346H17.3852V10.3666H16.7852ZM17.0852 20.3346H21.4746V19.7346H17.0852V20.3346ZM21.7746 20.0346V10.3666H21.1746V20.0346H21.7746ZM21.7746 10.3622C21.7649 9.70877 21.4964 9.08601 21.0278 8.63061L20.6096 9.0609C20.9642 9.40542 21.1674 9.87657 21.1746 10.371L21.7746 10.3622ZM21.0278 8.63065C20.5594 8.17525 19.9291 7.92453 19.2759 7.93359L19.2842 8.53353C19.7784 8.52668 20.2552 8.71637 20.6096 9.06087L21.0278 8.63065ZM19.28 7.93356H19.2799V8.53356H19.28V7.93356Z" fill="#4FC1E3" mask="url(#path-9-outside-5_314_168)"/>
<mask id="path-11-outside-6_314_168" maskUnits="userSpaceOnUse" x="16.3779" y="2.68394" width="6" height="6" fill="black">
<rect fill="white" x="16.3779" y="2.68394" width="6" height="6"/>
<path d="M19.28 4.297C19.606 4.30593 19.9152 4.44339 20.1404 4.6794C20.3655 4.91526 20.4885 5.23069 20.4823 5.55663C20.476 5.88274 20.3413 6.19324 20.1074 6.42046C19.8734 6.64771 19.5592 6.77337 19.233 6.77002C18.9069 6.76667 18.5953 6.63463 18.3661 6.4026C18.1368 6.17074 18.0084 5.85752 18.0089 5.53142C18.0137 5.19909 18.1504 4.8824 18.3888 4.65085C18.6272 4.4193 18.9477 4.29204 19.28 4.29698M19.28 3.6843V3.68414C18.783 3.67744 18.3036 3.86817 17.9471 4.21452C17.5905 4.56073 17.3857 5.03435 17.3779 5.53142C17.3779 6.21094 17.7406 6.83889 18.329 7.17875C18.9174 7.51842 19.6426 7.51842 20.231 7.17875C20.8196 6.83893 21.1821 6.21094 21.1821 5.53142C21.1749 5.03419 20.9705 4.56026 20.6137 4.21391C20.257 3.86739 19.7773 3.67699 19.2801 3.68414L19.28 3.6843Z"/>
</mask>
<path d="M19.28 4.297C19.606 4.30593 19.9152 4.44339 20.1404 4.6794C20.3655 4.91526 20.4885 5.23069 20.4823 5.55663C20.476 5.88274 20.3413 6.19324 20.1074 6.42046C19.8734 6.64771 19.5592 6.77337 19.233 6.77002C18.9069 6.76667 18.5953 6.63463 18.3661 6.4026C18.1368 6.17074 18.0084 5.85752 18.0089 5.53142C18.0137 5.19909 18.1504 4.8824 18.3888 4.65085C18.6272 4.4193 18.9477 4.29204 19.28 4.29698M19.28 3.6843V3.68414C18.783 3.67744 18.3036 3.86817 17.9471 4.21452C17.5905 4.56073 17.3857 5.03435 17.3779 5.53142C17.3779 6.21094 17.7406 6.83889 18.329 7.17875C18.9174 7.51842 19.6426 7.51842 20.231 7.17875C20.8196 6.83893 21.1821 6.21094 21.1821 5.53142C21.1749 5.03419 20.9705 4.56026 20.6137 4.21391C20.257 3.86739 19.7773 3.67699 19.2801 3.68414L19.28 3.6843Z" fill="#4FC1E3"/>
<path d="M20.1404 4.6794L19.9233 4.88648L19.9234 4.88656L20.1404 4.6794ZM20.4823 5.55663L20.1823 5.55091L20.1823 5.55091L20.4823 5.55663ZM20.1074 6.42046L19.8983 6.20527L19.8983 6.20527L20.1074 6.42046ZM19.233 6.77002L19.2299 7.07L19.2299 7.07L19.233 6.77002ZM18.3661 6.4026L18.5796 6.1918L18.5794 6.19165L18.3661 6.4026ZM18.0089 5.53142L17.7089 5.5271L17.7089 5.53098L18.0089 5.53142ZM18.3888 4.65085L18.1798 4.43564L18.1798 4.43564L18.3888 4.65085ZM19.28 3.6843H18.98L19.5711 3.75706L19.28 3.6843ZM19.28 3.68414H19.58V3.38815L19.2841 3.38417L19.28 3.68414ZM17.9471 4.21452L18.156 4.42976L18.1561 4.42971L17.9471 4.21452ZM17.3779 5.53142L17.0779 5.52672V5.53142H17.3779ZM18.329 7.17875L18.179 7.43854L18.179 7.43857L18.329 7.17875ZM20.231 7.17875L20.381 7.43857L20.381 7.43856L20.231 7.17875ZM21.1821 5.53142H21.4821L21.482 5.52709L21.1821 5.53142ZM20.6137 4.21391L20.4047 4.4291L20.4047 4.42915L20.6137 4.21391ZM19.2801 3.68414L19.2758 3.38417L19.045 3.38749L18.989 3.61138L19.2801 3.68414ZM19.2718 4.59688C19.5186 4.60365 19.7528 4.70772 19.9233 4.88648L20.3574 4.47233C20.0777 4.17906 19.6934 4.00821 19.2883 3.99711L19.2718 4.59688ZM19.9234 4.88656C20.0939 5.0652 20.187 5.30412 20.1823 5.55091L20.7822 5.56235C20.7899 5.15726 20.6371 4.76531 20.3574 4.47224L19.9234 4.88656ZM20.1823 5.55091C20.1776 5.79796 20.0755 6.03316 19.8983 6.20527L20.3164 6.63566C20.6071 6.35331 20.7745 5.96753 20.7822 5.56235L20.1823 5.55091ZM19.8983 6.20527C19.7211 6.37741 19.4832 6.47257 19.2361 6.47004L19.2299 7.07C19.6353 7.07416 20.0257 6.91801 20.3164 6.63566L19.8983 6.20527ZM19.2361 6.47004C18.9891 6.4675 18.7531 6.36749 18.5796 6.1918L18.1527 6.61341C18.4375 6.90177 18.8247 7.06584 19.2299 7.07L19.2361 6.47004ZM18.5794 6.19165C18.4058 6.01609 18.3086 5.77887 18.3089 5.53186L17.7089 5.53098C17.7083 5.93617 17.8678 6.32538 18.1528 6.61356L18.5794 6.19165ZM18.3089 5.53574C18.3125 5.28303 18.4164 5.04219 18.5978 4.86605L18.1798 4.43564C17.8843 4.72261 17.7149 5.11515 17.7089 5.5271L18.3089 5.53574ZM18.5978 4.86605C18.7791 4.68996 19.0228 4.59319 19.2756 4.59695L19.2845 3.99702C18.8726 3.99089 18.4753 4.14863 18.1798 4.43564L18.5978 4.86605ZM19.58 3.6843V3.68414H18.98V3.6843H19.58ZM19.2841 3.38417C18.7076 3.3764 18.1516 3.59761 17.738 3.99934L18.1561 4.42971C18.4556 4.13872 18.8584 3.97848 19.276 3.98411L19.2841 3.38417ZM17.7381 3.99929C17.3245 4.40084 17.087 4.95017 17.078 5.52672L17.6779 5.53613C17.6844 5.11853 17.8565 4.72063 18.156 4.42976L17.7381 3.99929ZM17.0779 5.53142C17.0779 6.31815 17.4978 7.04511 18.179 7.43854L18.479 6.91897C17.9834 6.63268 17.6779 6.10373 17.6779 5.53142H17.0779ZM18.179 7.43857C18.8603 7.83181 19.6997 7.83181 20.381 7.43857L20.081 6.91893C19.5854 7.20503 18.9746 7.20503 18.479 6.91893L18.179 7.43857ZM20.381 7.43856C21.0624 7.04514 21.4821 6.3181 21.4821 5.53142H20.8821C20.8821 6.10378 20.5768 6.63272 20.081 6.91895L20.381 7.43856ZM21.482 5.52709C21.4737 4.95028 21.2366 4.40048 20.8227 3.99867L20.4047 4.42915C20.7044 4.72004 20.8761 5.11809 20.8821 5.53575L21.482 5.52709ZM20.8228 3.99872C20.4089 3.59671 19.8525 3.37588 19.2758 3.38417L19.2844 3.98411C19.7022 3.97811 20.1051 4.13806 20.4047 4.4291L20.8228 3.99872ZM18.989 3.61138L18.989 3.61154L19.5711 3.75706L19.5711 3.7569L18.989 3.61138Z" fill="#4FC1E3" mask="url(#path-11-outside-6_314_168)"/>
</svg>
