<svg width="26" height="26" viewBox="0 0 26 26" fill="none" xmlns="http://www.w3.org/2000/svg">
<path d="M9.17115 0H1.71744C0.755675 0 0 0.755675 0 1.71744V9.17115C0 10.1329 0.755675 10.8886 1.71744 10.8886H9.17115C10.1329 10.8886 10.8886 10.1329 10.8886 9.17115V1.71744C10.8886 0.789962 10.1329 0 9.17115 0V0ZM9.5145 9.17115C9.5145 9.3772 9.3772 9.51473 9.17091 9.51473L1.7172 9.51449C1.51115 9.51449 1.37362 9.3772 1.37362 9.17091V1.7172C1.37362 1.51115 1.51091 1.37362 1.7172 1.37362H9.17091C9.37696 1.37362 9.5145 1.51091 9.5145 1.7172V9.17115Z" fill="white"/>
<path d="M23.3573 0H15.9036C14.9418 0 14.1862 0.755675 14.1862 1.71744V9.17115C14.1862 10.1329 14.9418 10.8886 15.9036 10.8886H23.3573C24.3191 10.8886 25.0747 10.1329 25.0747 9.17115V1.71744C25.0747 0.789962 24.2848 0 23.3573 0V0ZM23.7009 9.17115C23.7009 9.3772 23.5636 9.51473 23.3573 9.51473L15.9036 9.51449C15.6975 9.51449 15.56 9.3772 15.56 9.17091L15.5603 1.7172C15.5603 1.51115 15.6975 1.37362 15.9038 1.37362H23.3575C23.5636 1.37362 23.7011 1.51091 23.7011 1.7172L23.7009 9.17115Z" fill="white"/>
<path d="M9.17115 14.186H1.71744C0.755675 14.186 0 14.9416 0 15.9034V23.3571C0 24.3189 0.755675 25.0745 1.71744 25.0745H9.17115C10.1329 25.0745 10.8886 24.3189 10.8886 23.3571V15.9034C10.8886 14.9416 10.1329 14.186 9.17115 14.186ZM9.5145 23.3571C9.5145 23.5632 9.3772 23.7007 9.17091 23.7007H1.7172C1.51115 23.7007 1.37362 23.5634 1.37362 23.3571V15.9034C1.37362 15.6973 1.51091 15.5598 1.7172 15.5598H9.17091C9.37696 15.5598 9.5145 15.6971 9.5145 15.9034V23.3571Z" fill="white"/>
<path d="M23.3573 14.186H15.9036C14.9418 14.186 14.1862 14.9416 14.1862 15.9034V23.3571C14.1862 24.3189 14.9418 25.0745 15.9036 25.0745H23.3573C24.3191 25.0745 25.0747 24.3189 25.0747 23.3571V15.9034C25.0747 14.9416 24.2848 14.186 23.3573 14.186Z" fill="white"/>
</svg>
