<svg width="29" height="26" viewBox="0 0 29 26" fill="none" xmlns="http://www.w3.org/2000/svg">
<path d="M6.31502 0.553503C6.0826 0.555847 5.86072 0.650378 5.69822 0.816393C5.53572 0.982603 5.44587 1.20643 5.44861 1.43884V2.50524H1.40506C1.17185 2.50427 0.947833 2.59665 0.783008 2.76149C0.617968 2.92634 0.525783 3.15036 0.526758 3.38354V8.36364C0.470898 8.53747 0.470898 8.72458 0.526758 8.89839V18.3934C0.52754 18.6256 0.620704 18.8477 0.785354 19.0111C0.950199 19.1746 1.17305 19.2658 1.4051 19.265H15.4156C15.6152 22.7008 18.4754 25.4466 21.9596 25.4466C25.5719 25.4466 28.5151 22.4964 28.5151 18.8841C28.5151 15.9416 26.5604 13.4445 23.8837 12.619V3.38355C23.8844 3.15034 23.7923 2.92632 23.6274 2.7615C23.4624 2.59646 23.2385 2.50427 23.0052 2.50525H18.9618V1.43885C18.9645 1.20193 18.8712 0.974198 18.7032 0.807198C18.535 0.640403 18.3065 0.548993 18.0696 0.553488C17.8387 0.55798 17.619 0.653683 17.4585 0.819503C17.2977 0.985323 17.209 1.20778 17.2118 1.43885V2.50525H7.19878V1.43885C7.20151 1.2035 7.10932 0.976938 6.94311 0.810353C6.7769 0.643768 6.55053 0.551173 6.31516 0.553518L6.31502 0.553503ZM2.27672 4.25525H5.44862V5.3199C5.44334 5.55525 5.53319 5.78299 5.69784 5.95135C5.86249 6.11971 6.08807 6.21444 6.32364 6.21444C6.55899 6.21444 6.78458 6.11971 6.94924 5.95135C7.11389 5.78299 7.20373 5.55526 7.19865 5.3199V4.25525H17.2117V5.3199C17.2064 5.55525 17.2962 5.78299 17.4609 5.95135C17.6255 6.11971 17.8511 6.21444 18.0867 6.21444C18.3222 6.21444 18.5476 6.11971 18.7123 5.95135C18.8771 5.78299 18.967 5.55526 18.9617 5.3199V4.25525H22.1336V7.75525H2.27709L2.27672 4.25525ZM2.27672 9.50725L22.1332 9.50706V12.3372C22.0746 12.3356 22.0178 12.3286 21.9588 12.3286C21.7602 12.3288 21.5635 12.3409 21.3709 12.3592C18.4916 12.6168 16.1374 14.7442 15.5434 17.5152L2.2764 17.5154L2.27672 9.50725ZM21.9522 14.0788H21.9591C22.2548 14.0801 22.5522 14.1088 22.8427 14.1643L22.8425 14.1641C22.8714 14.1696 22.9005 14.1735 22.9296 14.176C25.1255 14.6219 26.7628 16.551 26.7628 18.8842C26.7628 21.5508 24.6255 23.6967 21.9589 23.6967C19.2923 23.6967 17.1464 21.5508 17.1464 18.8842C17.1464 18.7621 17.1546 18.6434 17.1636 18.5237C17.1671 18.5045 17.1698 18.485 17.1722 18.4657C17.2534 17.5348 17.5932 16.6874 18.1171 15.9911C18.12 15.9872 18.1225 15.9831 18.1256 15.9791C18.2967 15.7532 18.4889 15.5436 18.6963 15.352C18.7044 15.3448 18.7122 15.3372 18.7204 15.3299C18.9274 15.1415 19.1508 14.9725 19.3885 14.8223C19.3977 14.8167 19.4067 14.8108 19.4159 14.8051C19.6557 14.6559 19.909 14.5262 20.1747 14.4206C20.1813 14.4178 20.1885 14.4163 20.1952 14.4135C20.4631 14.3085 20.7421 14.2253 21.0309 14.1692C21.0792 14.16 21.1292 14.1549 21.178 14.1471C21.2794 14.1305 21.3805 14.1128 21.4839 14.1026C21.4856 14.1024 21.4874 14.1028 21.4889 14.1026C21.6413 14.088 21.796 14.0792 21.952 14.0788L21.9522 14.0788ZM24.0114 16.3858C23.7833 16.3895 23.5655 16.4821 23.4048 16.6438L20.9899 18.9954L20.6995 18.3239C20.6147 18.1018 20.4432 17.9239 20.2245 17.8307C20.0057 17.7377 19.7587 17.7375 19.5399 17.8305C19.3212 17.9235 19.1495 18.1012 19.0645 18.3233C18.9798 18.5452 18.9888 18.7922 19.0895 19.0075L19.8792 20.8549V20.8547C19.9925 21.1194 20.229 21.3114 20.5112 21.368C20.7937 21.4247 21.0856 21.3389 21.2925 21.1385L24.6249 17.8965C24.7966 17.7342 24.8954 17.5092 24.8987 17.2729C24.9019 17.0368 24.8095 16.8092 24.6425 16.642C24.4753 16.4749 24.2478 16.3825 24.0114 16.3858L24.0114 16.3858Z" fill="#4FC1E3"/>
</svg>
