<svg width="21" height="20" viewBox="0 0 21 20" fill="none" xmlns="http://www.w3.org/2000/svg">
<path fill-rule="evenodd" clip-rule="evenodd" d="M3.3585 0C1.51314 0 0 1.43574 0 3.19371V16.8063C0 18.5643 1.51314 20 3.3585 20H17.6431C19.4885 20 21 18.5643 21 16.8063V3.19371C21 1.43574 19.4883 0 17.6431 0H3.3585ZM3.3585 1.4665H17.6431C18.6623 1.4665 19.4606 2.22279 19.4606 3.19371V16.8063C19.4606 17.7772 18.6621 18.5335 17.6431 18.5335H3.3585C2.33932 18.5335 1.5394 17.7772 1.5394 16.8063V3.19371C1.5394 2.22279 2.33932 1.4665 3.3585 1.4665V1.4665ZM10.5011 3.32829C8.53007 3.32829 6.92165 4.8767 6.92165 6.75973C6.92165 7.74333 7.3594 8.63491 8.05967 9.26165C6.22417 10.1259 4.96128 11.9337 4.96128 14.0194V15.9356V15.9355C4.96055 16.1299 5.04087 16.3168 5.18471 16.4547C5.32838 16.5928 5.52389 16.6709 5.72797 16.6716H15.2726C15.477 16.6712 15.6727 16.5933 15.8169 16.4553C15.9609 16.3172 16.0414 16.1302 16.0407 15.9354V14.0192C16.0407 11.9336 14.7764 10.1259 12.9409 9.26146C13.6411 8.63472 14.0803 7.74314 14.0803 6.75954C14.0803 4.87652 12.4719 3.3281 10.5009 3.3281L10.5011 3.32829ZM10.5011 4.79621C11.6336 4.79621 12.5396 5.66296 12.5396 6.75973C12.5396 7.85636 11.6334 8.7203 10.5011 8.7203C9.36854 8.7203 8.4611 7.85636 8.4611 6.75973C8.4611 5.66309 9.36873 4.79621 10.5011 4.79621V4.79621ZM10.5011 10.187C12.7291 10.187 14.506 11.8803 14.506 14.0195V15.2053L6.50073 15.2052V14.0193C6.50073 11.8801 8.27309 10.1869 10.5011 10.1869L10.5011 10.187Z" fill="#4FC1E3"/>
</svg>
