<svg width="28" height="15" viewBox="0 0 28 15" fill="none" xmlns="http://www.w3.org/2000/svg">
<path d="M0.0288641 8.08538L3.01913 0.279331C3.06068 0.171108 3.14329 0.0842379 3.24906 0.0374458C3.35436 -0.00982723 3.47445 -0.0124677 3.58166 0.0302459L7.14306 1.43235H7.1433C7.36392 1.51922 7.47422 1.7683 7.39066 1.99147C7.39066 1.99147 7.31234 2.20072 7.22925 2.42245L8.30319 2.58179L8.30343 2.58155C8.71147 2.64202 9.12786 2.5993 9.51562 2.45773L12.8621 1.23291C13.3174 1.06589 13.8179 1.0743 14.2672 1.25643L15.3808 1.70684H15.3811C15.9732 1.48391 16.6219 1.46328 17.2269 1.64805L19.4923 2.34443C20.0078 2.50281 20.5574 2.51001 21.0767 2.36531L21.6056 2.21749L21.4769 1.74092H21.4766C21.4465 1.62934 21.4616 1.51008 21.5191 1.40977C21.5767 1.30947 21.6715 1.23628 21.7827 1.20652L25.2689 0.267549C25.4993 0.205399 25.7361 0.342176 25.7989 0.573746L27.9848 8.6378C28.0151 8.74986 27.9996 8.86913 27.9421 8.96967C27.8843 9.07022 27.7893 9.14341 27.6778 9.17316L24.1818 10.1037V10.1035C23.9514 10.1652 23.715 10.0279 23.6527 9.79656L23.5582 9.4467L23.354 9.51149H23.3543C23.078 9.59979 22.7901 9.64491 22.5005 9.64491C22.3121 9.64251 22.1244 9.62091 21.9403 9.5806C21.9539 9.9427 21.8424 10.2984 21.6249 10.5873C21.4074 10.8762 21.0972 11.0809 20.747 11.1663C20.624 11.1968 20.4977 11.2121 20.3712 11.2124C20.3535 11.2124 20.3361 11.2093 20.3184 11.2085C20.311 11.4953 20.2119 11.772 20.0357 11.9973C19.8595 12.2229 19.6155 12.3853 19.34 12.4602C19.2337 12.4892 19.1241 12.5051 19.0138 12.5072C18.9997 12.944 18.7669 13.344 18.3947 13.5701C18.0227 13.7961 17.5621 13.8177 17.1708 13.6272L17.0493 13.5677C16.9741 13.8871 16.7604 14.1558 16.4672 14.3C16.1738 14.4443 15.8314 14.4486 15.5343 14.312L13.6674 13.4561L12.9529 14.4704C12.7611 14.7421 12.4701 14.9261 12.1432 14.982C11.8166 15.0382 11.4811 14.9616 11.2106 14.7694L10.911 14.5561C10.7075 14.4119 10.5519 14.2093 10.4642 13.9749C10.4427 13.9797 10.4229 13.9886 10.4012 13.9922V13.9924C10.3324 14.0042 10.263 14.0099 10.1932 14.0099C9.94206 14.0099 9.69685 13.9312 9.49222 13.7848L9.20379 13.5797C9.08489 13.494 8.98246 13.387 8.90152 13.2643C8.75564 13.368 8.58898 13.4381 8.41301 13.4693C8.34448 13.4813 8.27477 13.487 8.20529 13.487C7.95363 13.487 7.70842 13.4083 7.50378 13.2615L7.21559 13.0568C7.03915 12.9342 6.89876 12.7655 6.81018 12.5692C6.72136 12.3726 6.68722 12.1557 6.71157 11.9412C6.54634 11.9102 6.38948 11.8437 6.25195 11.7465L5.97547 11.5495C5.71832 11.3664 5.54426 11.0881 5.49102 10.7761C5.43777 10.4639 5.50988 10.1436 5.69157 9.88487L5.72763 9.83376L4.49349 9.25353L4.28123 9.74858L4.28147 9.74834C4.1893 9.96287 3.94529 10.0661 3.72825 9.9823L0.278154 8.64857V8.64881C0.170712 8.6073 0.0842778 8.52475 0.0374819 8.41916C-0.00931521 8.31334 -0.01242 8.1936 0.0288865 8.08561L0.0288641 8.08538ZM27.0337 8.4434L25.0761 1.22095L22.4268 1.9346L23.8331 7.14039L24.2762 8.78054L24.2765 8.78198L24.376 9.1508L27.0337 8.4434ZM23.0927 8.68121L23.3307 8.60538L22.868 6.892L21.832 3.05809L21.3084 3.20447V3.20423C20.6303 3.39452 19.9121 3.38516 19.2391 3.17735L16.9737 2.48097C16.2928 2.27316 15.5531 2.44186 15.0283 2.92491L12.0712 5.65521C11.863 5.84742 11.8356 6.16802 12.0082 6.39312C12.1808 6.61821 12.496 6.6734 12.734 6.52006L14.4543 5.41357H14.4546C14.8216 5.17744 15.2492 5.05362 15.6852 5.05722C16.1209 5.06058 16.5464 5.1916 16.9098 5.43372L18.8022 6.69595H18.8024L19.3175 7.03958L21.4255 8.44555V8.44531C21.9166 8.77455 22.5302 8.86141 23.0927 8.68119L23.0927 8.68121ZM11.4114 13.845L11.7113 14.0586V14.0589C11.7944 14.1176 11.8973 14.1409 11.9973 14.1236C12.0976 14.1068 12.1871 14.0502 12.2454 13.9665L13.1685 12.6563L13.1725 12.6505L13.45 12.257C13.572 12.0832 13.5314 11.843 13.359 11.7197L13.0587 11.5061C12.9942 11.46 12.9171 11.4353 12.838 11.4353C12.8161 11.4353 12.7941 11.437 12.7726 11.4408C12.6723 11.4576 12.5828 11.5145 12.5245 11.5983L11.6719 12.8084L11.3195 13.3085C11.1978 13.4822 11.2388 13.7222 11.4114 13.845H11.4114ZM9.70399 12.8682L9.99266 13.0733C10.0686 13.1278 10.1631 13.1496 10.2551 13.1338C10.347 13.118 10.4289 13.0659 10.4824 12.9891L11.9467 10.9103H11.9469C12.0009 10.834 12.0226 10.7392 12.0069 10.6466C11.9913 10.5542 11.9398 10.4719 11.8636 10.4176L11.5749 10.2125C11.5157 10.17 11.445 10.1472 11.3725 10.1472C11.3524 10.1472 11.3324 10.1489 11.3125 10.1522C11.2206 10.1678 11.1387 10.2199 11.085 10.2964L9.82597 12.0837L9.62016 12.3758C9.50818 12.5351 9.54543 12.7554 9.70397 12.8684L9.70399 12.8682ZM7.71651 12.3455L8.00446 12.5507V12.5509C8.163 12.6632 8.38218 12.6253 8.49439 12.4662L10.4656 9.66798V9.66774C10.5196 9.59143 10.5411 9.49664 10.5255 9.40425C10.5098 9.31187 10.4582 9.22955 10.3823 9.17556L10.0936 8.9704C10.0175 8.91616 9.92314 8.89456 9.83122 8.9104C9.73929 8.92624 9.65739 8.97832 9.60367 9.05487L8.69233 10.3487L8.69209 10.3492L8.54047 10.5645L7.63267 11.8533L7.63243 11.853C7.52022 12.0124 7.55794 12.2329 7.71648 12.3457L7.71651 12.3455ZM6.47589 10.8383L6.75285 11.0356L6.75262 11.0358C6.89778 11.1383 7.09786 11.1037 7.20053 10.9583L7.38844 10.6914L7.98486 9.84487C8.08682 9.69945 8.05244 9.49836 7.90798 9.39541L7.63102 9.19816V9.19792C7.48609 9.09522 7.28554 9.12977 7.18287 9.27519L6.39902 10.3876V10.3879C6.29636 10.5335 6.33074 10.7354 6.47567 10.8385L6.47589 10.8383ZM6.23641 9.11105L6.47565 8.77175L6.47542 8.77199C6.65783 8.51402 6.93455 8.33885 7.24496 8.28557C7.55558 8.23206 7.87434 8.30453 8.13173 8.4869L8.40869 8.68415V8.68439C8.4968 8.7487 8.57535 8.82525 8.64244 8.91164L8.89624 8.55121C9.08272 8.28629 9.3666 8.10655 9.68485 8.05184C10.0034 7.99713 10.3304 8.07176 10.5941 8.25941L10.8827 8.46458H10.883C11.147 8.65175 11.3259 8.93731 11.3796 9.25741C11.3808 9.26437 11.3801 9.27133 11.381 9.27805V9.27829C11.6298 9.27901 11.8724 9.35675 12.0756 9.50145L12.364 9.70662C12.6283 9.89355 12.8074 10.1789 12.8609 10.4992C12.8647 10.521 12.863 10.5429 12.8656 10.565C13.1144 10.57 13.3563 10.6504 13.5593 10.7953L13.8596 11.0089C14.1244 11.1985 14.3056 11.4843 14.3644 11.8056C14.4231 12.1271 14.3548 12.459 14.1741 12.7307L15.8941 13.5195C16.0064 13.5706 16.1389 13.5233 16.1935 13.4122C16.2485 13.3011 16.2057 13.1665 16.0971 13.1074L15.9696 13.0386L15.967 13.0374L15.9655 13.0364L14.8777 12.4485C14.6671 12.3347 14.5881 12.0708 14.7015 11.8589C14.8147 11.6472 15.0773 11.5678 15.2882 11.6816L16.3566 12.2589L17.5504 12.8442C17.7369 12.9342 17.9606 12.8749 18.0788 12.7043C18.1984 12.5298 18.1702 12.2935 18.0133 12.1521L15.5314 10.6939L15.531 10.6934L14.4052 10.0364V10.0366C14.3052 9.97904 14.2321 9.88354 14.202 9.77171C14.1722 9.65965 14.1879 9.54039 14.2459 9.44008C14.304 9.33978 14.3992 9.26683 14.5107 9.23755C14.6225 9.20804 14.7411 9.22459 14.8405 9.28339L18.3794 11.3485C18.4037 11.3627 18.4238 11.3823 18.4469 11.3982L18.7437 11.5724C18.9474 11.6926 19.2084 11.6434 19.355 11.457C19.5013 11.2705 19.4884 11.0039 19.3249 10.8326L18.1812 10.107L15.7585 8.61321C15.6603 8.55298 15.5901 8.45603 15.5631 8.34349C15.5364 8.23119 15.555 8.11264 15.6152 8.01402C15.6751 7.91563 15.7718 7.84508 15.8838 7.8182C15.9955 7.79133 16.1135 7.81029 16.2114 7.87076L19.6839 10.0119C19.7372 10.0465 19.7878 10.0851 19.8355 10.1269L20.0005 10.2315V10.2317C20.3252 10.4379 20.7545 10.3428 20.9632 10.0189C21.1719 9.69495 21.0821 9.26231 20.7622 9.04896L18.3227 7.42202L16.4301 6.1598V6.16004C16.2068 6.01102 15.9454 5.93063 15.6777 5.92847C15.4098 5.92631 15.1469 6.00214 14.9213 6.14732L13.201 7.25382C12.8006 7.5113 12.2982 7.54921 11.8642 7.35436C11.4301 7.15951 11.1228 6.75829 11.0464 6.287C10.97 5.81546 11.1347 5.33697 11.4848 5.01372L14.4416 2.28366C14.4461 2.27934 14.4516 2.27598 14.4562 2.2719L13.9435 2.06457H13.9438C13.6924 1.96307 13.4128 1.9585 13.1582 2.05185L9.81124 3.27666C9.28859 3.46744 8.72655 3.52479 8.1762 3.4432L6.90887 3.2553L4.82732 8.44887L6.23641 9.11105ZM3.6506 9.01867L6.23067 2.61632L6.42884 2.08672L3.67115 1.00086L0.993401 7.99172L3.6506 9.01867Z" fill="#4FC1E3"/>
</svg>
