<svg width="134" height="50" viewBox="0 0 134 50" fill="none" xmlns="http://www.w3.org/2000/svg">
<path d="M68.096 20.16C69.12 20.16 70.024 20.36 70.808 20.76C71.592 21.16 72.2 21.768 72.632 22.584C73.08 23.4 73.304 24.432 73.304 25.68V33H71V25.944C71 24.712 70.712 23.784 70.136 23.16C69.56 22.536 68.752 22.224 67.712 22.224C66.944 22.224 66.272 22.384 65.696 22.704C65.12 23.024 64.672 23.496 64.352 24.12C64.048 24.744 63.896 25.52 63.896 26.448V33H61.592V25.944C61.592 24.712 61.304 23.784 60.728 23.16C60.168 22.536 59.36 22.224 58.304 22.224C57.552 22.224 56.888 22.384 56.312 22.704C55.736 23.024 55.288 23.496 54.968 24.12C54.648 24.744 54.488 25.52 54.488 26.448V33H52.184V20.28H54.392V23.664L54.032 22.8C54.432 21.968 55.048 21.32 55.88 20.856C56.712 20.392 57.68 20.16 58.784 20.16C60 20.16 61.048 20.464 61.928 21.072C62.808 21.664 63.384 22.568 63.656 23.784L62.72 23.4C63.104 22.424 63.776 21.64 64.736 21.048C65.696 20.456 66.816 20.16 68.096 20.16ZM82.9914 33.144C81.7114 33.144 80.5754 32.864 79.5834 32.304C78.5914 31.744 77.8074 30.976 77.2314 30C76.6554 29.008 76.3674 27.888 76.3674 26.64C76.3674 25.376 76.6554 24.256 77.2314 23.28C77.8074 22.304 78.5914 21.544 79.5834 21C80.5754 20.44 81.7114 20.16 82.9914 20.16C84.2554 20.16 85.3834 20.44 86.3754 21C87.3834 21.544 88.1674 22.304 88.7274 23.28C89.3034 24.24 89.5914 25.36 89.5914 26.64C89.5914 27.904 89.3034 29.024 88.7274 30C88.1674 30.976 87.3834 31.744 86.3754 32.304C85.3834 32.864 84.2554 33.144 82.9914 33.144ZM82.9914 31.128C83.8074 31.128 84.5354 30.944 85.1754 30.576C85.8314 30.208 86.3434 29.688 86.7114 29.016C87.0794 28.328 87.2634 27.536 87.2634 26.64C87.2634 25.728 87.0794 24.944 86.7114 24.288C86.3434 23.616 85.8314 23.096 85.1754 22.728C84.5354 22.36 83.8074 22.176 82.9914 22.176C82.1754 22.176 81.4474 22.36 80.8074 22.728C80.1674 23.096 79.6554 23.616 79.2714 24.288C78.8874 24.944 78.6954 25.728 78.6954 26.64C78.6954 27.536 78.8874 28.328 79.2714 29.016C79.6554 29.688 80.1674 30.208 80.8074 30.576C81.4474 30.944 82.1754 31.128 82.9914 31.128ZM96.4258 33.144C95.3698 33.144 94.3618 33 93.4018 32.712C92.4578 32.424 91.7138 32.072 91.1698 31.656L92.1298 29.832C92.6738 30.2 93.3458 30.512 94.1458 30.768C94.9458 31.024 95.7618 31.152 96.5938 31.152C97.6658 31.152 98.4338 31 98.8978 30.696C99.3778 30.392 99.6178 29.968 99.6178 29.424C99.6178 29.024 99.4738 28.712 99.1858 28.488C98.8978 28.264 98.5138 28.096 98.0338 27.984C97.5698 27.872 97.0498 27.776 96.4738 27.696C95.8978 27.6 95.3218 27.488 94.7458 27.36C94.1698 27.216 93.6418 27.024 93.1618 26.784C92.6818 26.528 92.2978 26.184 92.0098 25.752C91.7218 25.304 91.5778 24.712 91.5778 23.976C91.5778 23.208 91.7938 22.536 92.2258 21.96C92.6578 21.384 93.2658 20.944 94.0498 20.64C94.8498 20.32 95.7938 20.16 96.8818 20.16C97.7138 20.16 98.5538 20.264 99.4018 20.472C100.266 20.664 100.97 20.944 101.514 21.312L100.53 23.136C99.9538 22.752 99.3538 22.488 98.7298 22.344C98.1058 22.2 97.4818 22.128 96.8578 22.128C95.8498 22.128 95.0978 22.296 94.6018 22.632C94.1058 22.952 93.8578 23.368 93.8578 23.88C93.8578 24.312 94.0018 24.648 94.2898 24.888C94.5938 25.112 94.9778 25.288 95.4418 25.416C95.9218 25.544 96.4498 25.656 97.0258 25.752C97.6018 25.832 98.1778 25.944 98.7538 26.088C99.3298 26.216 99.8498 26.4 100.314 26.64C100.794 26.88 101.178 27.216 101.466 27.648C101.77 28.08 101.922 28.656 101.922 29.376C101.922 30.144 101.698 30.808 101.25 31.368C100.802 31.928 100.17 32.368 99.3538 32.688C98.5378 32.992 97.5618 33.144 96.4258 33.144ZM104.801 33V20.28H107.105V33H104.801ZM105.953 17.832C105.505 17.832 105.129 17.688 104.825 17.4C104.537 17.112 104.393 16.76 104.393 16.344C104.393 15.912 104.537 15.552 104.825 15.264C105.129 14.976 105.505 14.832 105.953 14.832C106.401 14.832 106.769 14.976 107.057 15.264C107.361 15.536 107.513 15.88 107.513 16.296C107.513 16.728 107.369 17.096 107.081 17.4C106.793 17.688 106.417 17.832 105.953 17.832ZM115.872 33.144C114.592 33.144 113.6 32.8 112.896 32.112C112.192 31.424 111.84 30.44 111.84 29.16V17.496H114.144V29.064C114.144 29.752 114.312 30.28 114.648 30.648C115 31.016 115.496 31.2 116.136 31.2C116.856 31.2 117.456 31 117.936 30.6L118.656 32.256C118.304 32.56 117.88 32.784 117.384 32.928C116.904 33.072 116.4 33.144 115.872 33.144ZM109.68 22.176V20.28H117.792V22.176H109.68ZM126.684 33.144C125.324 33.144 124.124 32.864 123.084 32.304C122.06 31.744 121.26 30.976 120.684 30C120.124 29.024 119.844 27.904 119.844 26.64C119.844 25.376 120.116 24.256 120.66 23.28C121.22 22.304 121.98 21.544 122.94 21C123.916 20.44 125.012 20.16 126.228 20.16C127.46 20.16 128.548 20.432 129.492 20.976C130.436 21.52 131.172 22.288 131.7 23.28C132.244 24.256 132.516 25.4 132.516 26.712C132.516 26.808 132.508 26.92 132.492 27.048C132.492 27.176 132.484 27.296 132.468 27.408H121.644V25.752H131.268L130.332 26.328C130.348 25.512 130.18 24.784 129.828 24.144C129.476 23.504 128.988 23.008 128.364 22.656C127.756 22.288 127.044 22.104 126.228 22.104C125.428 22.104 124.716 22.288 124.092 22.656C123.468 23.008 122.98 23.512 122.628 24.168C122.276 24.808 122.1 25.544 122.1 26.376V26.76C122.1 27.608 122.292 28.368 122.676 29.04C123.076 29.696 123.628 30.208 124.332 30.576C125.036 30.944 125.844 31.128 126.756 31.128C127.508 31.128 128.188 31 128.796 30.744C129.42 30.488 129.964 30.104 130.428 29.592L131.7 31.08C131.124 31.752 130.404 32.264 129.54 32.616C128.692 32.968 127.74 33.144 126.684 33.144Z" fill="white"/>
<circle cx="25" cy="25" r="14" fill="white"/>
<path d="M43.1544 18.5098L20.7026 43.7421L10.0767 11.6821L43.1544 18.5098Z" fill="#0C86DF" fill-opacity="0.5"/>
</svg>
