<svg width="27" height="21" viewBox="0 0 27 21" fill="none" xmlns="http://www.w3.org/2000/svg">
<path d="M23.6751 20.975H3.32505C2.58896 20.975 1.88326 20.6826 1.36273 20.1623C0.842412 19.6418 0.550049 18.9361 0.550049 18.2V3.4C0.550049 2.66391 0.842412 1.95822 1.36273 1.43768C1.88325 0.917363 2.58896 0.625 3.32505 0.625H23.6751C24.4111 0.625 25.1168 0.917363 25.6374 1.43768C26.1577 1.9582 26.4501 2.66391 26.4501 3.4V18.2C26.4501 18.9361 26.1577 19.6418 25.6374 20.1623C25.1169 20.6826 24.4111 20.975 23.6751 20.975ZM3.32505 2.475C3.07976 2.475 2.84438 2.57246 2.67094 2.74589C2.49751 2.91933 2.40005 3.15471 2.40005 3.4V18.2C2.40005 18.4453 2.49751 18.6807 2.67094 18.8541C2.84438 19.0275 3.07976 19.125 3.32505 19.125H23.6751C23.9203 19.125 24.1557 19.0275 24.3292 18.8541C24.5026 18.6807 24.6001 18.4453 24.6001 18.2V3.4C24.6001 3.15471 24.5026 2.91933 24.3292 2.74589C24.1557 2.57246 23.9203 2.475 23.6751 2.475H3.32505Z" fill="#4FC1E3"/>
<path d="M13.5001 11.725C13.3 11.725 13.1051 11.6602 12.9451 11.54L1.8451 3.215C1.64875 3.06779 1.51908 2.84872 1.4844 2.60593C1.44971 2.36291 1.51289 2.11638 1.6601 1.92C1.80732 1.72362 2.02639 1.59398 2.26918 1.5593C2.5122 1.52461 2.75872 1.58779 2.95511 1.735L13.5001 9.64349L24.0451 1.735C24.3094 1.53679 24.6596 1.49446 24.9635 1.62433C25.2674 1.7542 25.4789 2.03625 25.5185 2.36433C25.5579 2.69242 25.4194 3.0168 25.1551 3.21501L14.0551 11.54C13.8951 11.6602 13.7002 11.725 13.5001 11.725V11.725Z" fill="#4FC1E3"/>
</svg>
