<svg width="27" height="24" viewBox="0 0 27 24" fill="none" xmlns="http://www.w3.org/2000/svg">
<path d="M15.4989 18.6704C16.2763 18.0922 16.7834 17.169 16.7834 16.128C16.7834 14.3798 15.3612 12.9572 13.6125 12.9572C11.8638 12.9572 10.4416 14.3793 10.4416 16.128C10.4416 17.1697 10.9486 18.0927 11.7267 18.6711C10.8077 19.0296 10.0218 19.6403 9.45868 20.4163C7.57525 19.4465 6.06452 17.852 5.22712 15.8945C4.99787 15.3584 4.81919 14.7962 4.69541 14.2137L6.25077 15.4515C6.46332 15.6208 6.77288 15.5856 6.94221 15.3728C7.11151 15.1603 7.07628 14.8507 6.8635 14.6814L4.27745 12.6231C4.0649 12.4536 3.75534 12.4891 3.58602 12.7018L1.52776 15.2879C1.35845 15.5004 1.39368 15.81 1.60647 15.9793C1.70645 16.0589 1.82794 16.093 1.946 16.0853C2.07916 16.0763 2.20797 16.0134 2.29788 15.9008L3.62693 14.2311C3.70495 14.639 3.80676 15.0387 3.93191 15.4279C4.75648 17.9907 6.57518 20.1066 8.92858 21.3343C8.67119 21.9253 8.52842 22.5744 8.52842 23.2557C8.52842 23.5275 8.74852 23.7476 9.02033 23.7476H18.2043H18.211C18.4828 23.7476 18.7029 23.5275 18.7029 23.2557C18.7029 23.2269 18.7004 23.1983 18.6955 23.1708C18.6601 21.1307 17.3443 19.3905 15.4988 18.6704L15.4989 18.6704ZM11.4261 16.128C11.4261 14.9223 12.4072 13.9412 13.613 13.9412C14.8187 13.9412 15.7998 14.9223 15.7998 16.128C15.7998 17.3338 14.8187 18.3149 13.613 18.3149C12.407 18.3149 11.4261 17.3338 11.4261 16.128ZM9.54407 22.7636C9.79598 20.8129 11.5245 19.2985 13.6125 19.2985C15.7005 19.2985 17.429 20.8129 17.6809 22.7636H9.54407Z" fill="#4FC1E3"/>
<path d="M26.5303 11.3964C26.4946 9.35623 25.1793 7.61625 23.3334 6.89623C24.1108 6.31807 24.6179 5.39487 24.6179 4.35388C24.6179 2.60523 23.1957 1.183 21.447 1.183C19.6983 1.183 18.2761 2.60517 18.2761 4.35388C18.2761 5.39557 18.7831 6.31854 19.5612 6.89694C17.6897 7.62679 16.3629 9.40473 16.3629 11.4817C16.3629 11.7535 16.583 11.9736 16.8548 11.9736H22.7184C22.7237 12.0887 22.7282 12.2043 22.7282 12.3207C22.7282 14.2067 22.1526 15.9608 21.1676 17.4164C20.797 17.9642 20.3664 18.468 19.8886 18.9226L20.214 17.1609C20.2634 16.8937 20.0868 16.6372 19.8198 16.5875C19.5525 16.5381 19.2961 16.7147 19.2464 16.9817L18.6458 20.2315C18.5964 20.4988 18.773 20.7552 19.04 20.8049L22.2898 21.4055C22.557 21.4549 22.8135 21.2783 22.8632 21.0113C22.8865 20.8856 22.8595 20.7623 22.7968 20.6619C22.7264 20.5486 22.6101 20.4642 22.4685 20.4381L20.2352 20.0256C20.5409 19.7625 20.8321 19.4827 21.1047 19.1857C22.7643 17.3755 23.7795 14.9647 23.7795 12.3211C23.7795 12.2047 23.7756 12.0896 23.771 11.974H26.0384C26.0407 11.9738 26.0427 11.974 26.045 11.974C26.3168 11.974 26.5369 11.7539 26.5369 11.4821C26.5376 11.4526 26.5349 11.4242 26.5301 11.3966L26.5303 11.3964ZM19.2604 4.35376C19.2604 3.14801 20.2415 2.16694 21.4473 2.16694C22.653 2.16694 23.6341 3.14801 23.6341 4.35376C23.6341 5.55952 22.653 6.54059 21.4473 6.54059C20.2413 6.54059 19.2604 5.55928 19.2604 4.35376ZM17.3786 10.9893C17.6305 9.0386 19.359 7.52424 21.447 7.52424C23.535 7.52424 25.2635 9.0386 25.5155 10.9893H17.3786Z" fill="#4FC1E3"/>
<path d="M9.68276 11.9733C9.95457 11.9733 10.1747 11.7532 10.1747 11.4814C10.1747 11.4526 10.1722 11.424 10.1673 11.3965C10.1317 9.35638 8.81634 7.6164 6.9704 6.89638C7.58154 6.44176 8.02586 5.77503 8.18734 5.00382C9.70405 3.87515 11.5806 3.20433 13.6125 3.20433C13.7084 3.20433 13.8026 3.20867 13.8978 3.21165C14.6 3.23338 15.2827 3.33291 15.9366 3.50588L13.8526 4.27808C13.5977 4.37257 13.4675 4.65559 13.562 4.91048C13.6565 5.16536 13.9395 5.29531 14.1944 5.20104L17.2936 4.05293C17.5485 3.95889 17.6785 3.67542 17.5842 3.42053L16.4361 0.321283C16.3416 0.0664039 16.0586 -0.0635485 15.8037 0.0307163C15.684 0.0751024 15.5918 0.16136 15.5374 0.266601C15.4763 0.385343 15.4632 0.528345 15.5131 0.6631L16.1879 2.48409C15.8179 2.38708 15.4395 2.3118 15.0542 2.25689C14.5829 2.18963 14.102 2.15302 13.6124 2.15302C11.6193 2.15302 9.76263 2.73462 8.19221 3.72941C7.90095 2.2793 6.61857 1.18384 5.08406 1.18384C3.33582 1.18384 1.91318 2.60601 1.91318 4.35472C1.91318 5.39642 2.42018 6.31938 3.19829 6.89778C1.32676 7.62764 0 9.40557 0 11.4826C0 11.7544 0.2201 11.9745 0.491906 11.9745H9.67591C9.67843 11.9729 9.68048 11.9733 9.68277 11.9733L9.68276 11.9733ZM2.89785 4.35377C2.89785 3.14802 3.87892 2.16695 5.08467 2.16695C6.29042 2.16695 7.2715 3.14802 7.2715 4.35377C7.2715 5.55952 6.29042 6.54059 5.08467 6.54059C3.87869 6.54059 2.89785 5.55929 2.89785 4.35377V4.35377ZM1.01577 10.9893C1.26768 9.0386 2.99619 7.52424 5.0842 7.52424C7.17216 7.52424 8.90072 9.0386 9.15263 10.9893H1.01577Z" fill="#4FC1E3"/>
</svg>
