<svg width="18" height="24" viewBox="0 0 18 24" fill="none" xmlns="http://www.w3.org/2000/svg">
<path d="M9 5C8.20888 5 7.43552 5.2346 6.77772 5.67412C6.11992 6.11365 5.60723 6.73836 5.30448 7.46927C5.00173 8.20017 4.92252 9.00444 5.07686 9.78036C5.2312 10.5563 5.61216 11.269 6.17157 11.8284C6.73098 12.3878 7.44372 12.7688 8.21964 12.9231C8.99556 13.0775 9.79983 12.9983 10.5307 12.6955C11.2616 12.3928 11.8864 11.8801 12.3259 11.2223C12.7654 10.5645 13 9.79112 13 9C13 7.93913 12.5786 6.92172 11.8284 6.17157C11.0783 5.42143 10.0609 5 9 5V5ZM9 11.6038C8.48501 11.6038 7.98158 11.4511 7.55339 11.165C7.12519 10.8789 6.79145 10.4722 6.59437 9.99644C6.39729 9.52066 6.34572 8.99711 6.44619 8.49202C6.54666 7.98692 6.79466 7.52296 7.15881 7.15881C7.52296 6.79465 7.98692 6.54666 8.49202 6.44619C8.99711 6.34572 9.52066 6.39729 9.99645 6.59437C10.4722 6.79144 10.8789 7.12518 11.165 7.55338C11.4511 7.98158 11.6038 8.48501 11.6038 9C11.602 9.68937 11.3268 10.3499 10.8387 10.8367C10.3506 11.3235 9.68937 11.5969 9 11.5969V11.6038Z" fill="#4FC1E3"/>
<path d="M8.99618 7.29447e-10C6.61746 0.00191703 4.33618 0.912019 2.6506 2.53153C0.965012 4.15104 0.0121046 6.34835 0 8.64354C0 12.0847 2.00085 14.9659 3.46712 17.066L3.73441 17.4492C5.19325 19.4893 6.75826 21.4568 8.42342 23.3442L9.00382 24L9.58422 23.3442C11.2492 21.4567 12.8142 19.4892 14.2732 17.4492L14.5405 17.0586C15.9992 14.9586 18 12.0847 18 8.64354C17.9879 6.34707 17.0339 4.14865 15.3467 2.52893C13.6595 0.909213 11.3762 -2.97374e-05 8.99618 7.29447e-10V7.29447e-10ZM13.2652 16.2112L12.9902 16.6018C11.6767 18.5029 9.93551 20.6325 8.99618 21.6862C8.09504 20.6325 6.31566 18.5029 5.00212 16.6018L4.73483 16.2112C3.38311 14.2659 1.52737 11.6058 1.52737 8.61406C1.52737 7.66767 1.72055 6.73055 2.0959 5.8562C2.47124 4.98185 3.02139 4.1874 3.71493 3.5182C4.40847 2.84901 5.23183 2.31817 6.13799 1.956C7.04415 1.59384 8.01536 1.40743 8.99618 1.40743C9.977 1.40743 10.9482 1.59384 11.8544 1.956C12.7605 2.31817 13.5839 2.84901 14.2774 3.5182C14.971 4.1874 15.5211 4.98185 15.8965 5.8562C16.2718 6.73055 16.465 7.66767 16.465 8.61406C16.465 11.6352 14.6169 14.2954 13.2652 16.2112V16.2112Z" fill="#4FC1E3"/>
</svg>
