<svg width="25" height="24" viewBox="0 0 25 24" fill="none" xmlns="http://www.w3.org/2000/svg">
<path d="M3.16348 0.100204C1.75468 0.100204 0.599976 1.2549 0.599976 2.6637V16.5582C0.599976 17.967 1.75468 19.1203 3.16348 19.1203H9.85998L11.8643 23.4926C11.9787 23.7406 12.2268 23.8996 12.5 23.8996C12.7733 23.8996 13.0213 23.7406 13.1358 23.4926L15.1401 19.1203H21.8326C23.2414 19.1203 24.4002 17.967 24.4002 16.5582V2.6637C24.4002 1.2549 23.2414 0.100204 21.8326 0.100204H3.16348ZM3.16348 1.5002H21.8325C22.4905 1.5002 23.0001 2.00565 23.0001 2.6637V16.5582C23.0001 17.2162 22.4905 17.7203 21.8325 17.7203H14.6915C14.4159 17.7185 14.1649 17.8785 14.0503 18.1291L12.4999 21.5183L10.944 18.1291C10.8304 17.8809 10.5827 17.7213 10.3096 17.7203H3.16313C2.50513 17.7203 1.99963 17.2162 1.99963 16.5582V2.6637C1.99963 2.0057 2.50508 1.5002 3.16313 1.5002H3.16348ZM12.5235 3.69725C12.5002 3.69667 12.477 3.69706 12.4538 3.69862C12.1729 3.71659 11.9299 3.90077 11.8372 4.1662L10.6409 7.60605L6.99595 7.67988C6.6983 7.68633 6.43715 7.88027 6.34515 8.16328C6.25296 8.44609 6.35003 8.75623 6.58714 8.93633L9.49239 11.1361L8.43694 14.6238C8.35179 14.9088 8.45589 15.2162 8.6969 15.3908C8.93792 15.5652 9.2629 15.5686 9.50745 15.399L12.4989 13.3195L15.4916 15.399C15.7361 15.5686 16.0612 15.5652 16.3022 15.3908C16.5432 15.2162 16.6473 14.9088 16.5621 14.6238L15.5067 11.1361L18.4092 8.93633C18.6461 8.75645 18.7432 8.44668 18.6516 8.16388C18.5598 7.88107 18.2993 7.68693 18.0018 7.6799L14.3582 7.60607L13.1592 4.16622C13.0643 3.89415 12.812 3.70782 12.5235 3.69727L12.5235 3.69725ZM12.4989 6.52736L13.1948 8.52621C13.2913 8.80218 13.5491 8.9891 13.8415 8.99515L15.9579 9.03753L14.2721 10.3158C14.0385 10.4926 13.9399 10.7959 14.0247 11.076L14.6372 13.1021L12.8995 11.8922C12.659 11.7252 12.3401 11.7252 12.0997 11.8922L10.3592 13.1021L10.9745 11.076C11.0592 10.7959 10.9606 10.4926 10.727 10.3158L9.04125 9.03753L11.1576 8.99515C11.45 8.9891 11.7078 8.80218 11.8043 8.52621L12.4989 6.52736Z" fill="#4FC1E3"/>
</svg>
