<svg width="26" height="22" viewBox="0 0 26 22" fill="none" xmlns="http://www.w3.org/2000/svg">
<path d="M2.17375 0.000197198C0.982191 0.000197198 0 0.984027 0 2.17537V16.7269C0 17.9185 0.982191 18.9007 2.17375 18.9007H8.91462L8.92618 19.7476V19.7474C8.92866 20.0103 9.07051 20.252 9.29866 20.3826C9.52661 20.513 9.80679 20.5128 10.0348 20.3821L12.2417 19.1204L13.4703 21.2392V21.239C13.6757 21.5915 14.1277 21.711 14.4805 21.5064L16.6066 20.288C16.9609 20.0846 17.0833 19.6322 16.8797 19.2777L16.6601 18.9005H22.986C24.1776 18.9005 25.1598 17.9183 25.1598 16.7267V2.17518C25.1598 0.983619 24.1776 0 22.986 0L2.17375 0.000197198ZM2.17375 1.48162H22.9862C23.3833 1.48162 23.68 1.77833 23.68 2.17537V4.38237L1.48 4.38216V2.17517C1.48 1.77812 1.7767 1.48142 2.17375 1.48142V1.48162ZM3.10166 2.13489V2.13468C2.89126 2.13571 2.68974 2.21995 2.54111 2.36882C2.39265 2.51769 2.30883 2.71941 2.30821 2.92958C2.30759 3.1408 2.391 3.34356 2.53966 3.49346C2.68832 3.64315 2.89046 3.72802 3.10169 3.72884C3.31415 3.72987 3.51815 3.64605 3.66848 3.49594C3.8188 3.34584 3.90303 3.14205 3.90242 2.92958C3.9018 2.71794 3.81714 2.51539 3.66683 2.36612C3.51673 2.21705 3.31335 2.13384 3.10174 2.13466L3.10166 2.13489ZM5.28117 2.13489V2.13468C5.07077 2.13571 4.86925 2.21995 4.72062 2.36882C4.57216 2.51769 4.48834 2.71941 4.48772 2.92958C4.4871 3.1408 4.57051 3.34356 4.71918 3.49346C4.86784 3.64315 5.06997 3.72802 5.2812 3.72884C5.49366 3.72987 5.69766 3.64605 5.84799 3.49594C5.99831 3.34584 6.08255 3.14205 6.08193 2.92958C6.08131 2.71794 5.99665 2.51539 5.84634 2.36612C5.69624 2.21705 5.49286 2.13384 5.28125 2.13466L5.28117 2.13489ZM7.46068 2.13489V2.13468C7.25028 2.13571 7.04876 2.21995 6.90013 2.36882C6.75167 2.51769 6.66785 2.71941 6.66723 2.92958C6.66661 3.1408 6.75002 3.34356 6.89869 3.49346C7.04735 3.64315 7.24948 3.72802 7.46072 3.72884C7.67318 3.72987 7.87717 3.64605 8.0275 3.49594C8.17782 3.34584 8.26206 3.14205 8.26144 2.92958C8.26082 2.71794 8.17616 2.51539 8.02586 2.36612C7.87575 2.21705 7.67237 2.13384 7.46076 2.13466L7.46068 2.13489ZM1.47989 5.86237H23.6799V16.7266C23.6799 17.1237 23.3832 17.4204 22.9861 17.4204L15.7986 17.4202L15.6498 17.1644L18.2123 15.6945C18.441 15.5638 18.5829 15.3214 18.585 15.0579C18.587 14.7944 18.4491 14.5498 18.2224 14.4154L9.91484 9.50995C9.68441 9.37306 9.39804 9.37141 9.16617 9.50562C8.93636 9.64024 8.79679 9.88821 8.8005 10.1545L8.89589 17.4203H2.17352C1.77648 17.4203 1.47977 17.1236 1.47977 16.7265L1.47989 5.86237ZM10.2965 11.4557L16.3772 15.0445L14.2684 16.2513C14.0979 16.3489 13.9732 16.5106 13.922 16.7004C13.8707 16.8901 13.897 17.0927 13.9952 17.2628L15.2238 19.3759L14.3826 19.8572L13.1483 17.7369V17.7371C12.9428 17.3882 12.4954 17.269 12.1438 17.4697L10.3906 18.4757L10.2965 11.4557Z" fill="#4FC1E3"/>
</svg>
